<svg t="1712204558712" class="icon" viewBox="0 0 1072 1024"

 version="1.1" xmlns="http://www.w3.org/2000/svg"
 
  p-id="30631" 
  
    width="32"
   height="32"
  
  >
  
  
  <path d="M826.075429 694.369524h2.681904c94.403048 0 170.666667-75.483429 170.666667-168.326095 0-55.978667-56.222476-153.502476-170.666667-283.794286a1449.252571 1449.252571 0 0 0-95.524571 119.515428c-12.53181-21.845333-26.331429-44.373333-41.350095-67.486476 36.327619-48.761905 81.92-102.302476 136.874666-160.621714 162.523429 172.665905 243.809524 303.494095 243.809524 392.387048 0 133.36381-109.177905 241.517714-243.809524 241.517714-5.510095 0-10.922667-0.195048-16.335238-0.536381 6.436571-23.503238 11.02019-47.786667 13.653334-72.655238zM73.142857 633.904762a316.952381 316.952381 0 1 0 633.904762 0c0-110.104381-104.838095-288.670476-316.952381-525.507048C177.980952 345.234286 73.142857 523.800381 73.142857 633.904762zM390.095238 1024a390.095238 390.095238 0 0 1-390.095238-390.095238c0-143.652571 130.048-354.937905 390.095238-633.904762 260.047238 278.966857 390.095238 490.25219 390.095238 633.904762a390.095238 390.095238 0 0 1-390.095238 390.095238z m-231.814095-378.392381h73.142857a134.095238 134.095238 0 0 0 134.095238 134.095238v73.142857a207.238095 207.238095 0 0 1-207.238095-207.238095z" fill="#FFFFFF" p-id="30632"></path></svg>