<svg t="1712241482578" 

class="icon" viewBox="0 0 1024 1024" version="1.1"

 xmlns="http://www.w3.org/2000/svg" p-id="5401"
 
width="32" height="32"

fill="#FFFFFF"
 
 ><path d="M564.858 11.703c216.844 0 392.533 154.185 392.533 345.478-0.292 12.337-0.292 24.673-6.436 35.011 0 82.261-26.82 180.907-105.375 291.938l43.3 314.66H448.95l-24.819-135.704c-49.59 0-136.338 2.096-185.832 0-8.29 2.096-16.53 0-22.674-2.097-33.012-16.384-10.337-90.502-10.337-90.502-18.627-8.29-32.086-22.82-32.086-33.06 0-14.385 19.749-17.506 46.568-26.625l-16.97-2.438c-21.503-4.047-32.523-7.802-32.523-20.138 0-6.193 1.999-10.24 4.144-12.337-1.999-14.434-16.481-82.262-20.626-82.262-113.615-6.192-53.638-45.25-53.638-45.25 20.626-22.577 53.638-47.3 66.072-76.07 18.627-39.155-1.999-82.31-1.999-123.367 0-32.963 10.289-76.068 22.674-106.935 18.627-53.443 55.784-96.695 99.085-129.511C358.254 50.81 455.339 11.703 564.907 11.703z m159.159 217.722c-39.741 0-70.364 32.524-70.364 70.363 0 3.657 1.805 9.07 1.805 12.678l-56.028 32.476a101.035 101.035 0 0 0-84.846-45.154 104.74 104.74 0 0 0 0 209.481c30.672 0 56.028-12.678 75.874-32.475l101.132 57.685c0 1.756-1.804 5.364-1.804 9.021a34.28 34.28 0 1 0 34.328-34.23c-8.972 0-18.042 5.363-23.405 10.776l-97.67-55.93c10.873-16.19 18.041-36.084 18.041-57.686 0-16.188-3.56-30.72-10.874-45.153l52.42-30.72c10.873 23.406 36.132 39.74 63.195 39.74 37.937 0 68.56-30.72 68.56-70.363 0-39.79-32.525-70.51-70.364-70.51z" p-id="5402"></path></svg>