<svg t="1712203895647" class="icon"
 viewBox="0 0 1024 1024" version="1.1"
  xmlns="http://www.w3.org/2000/svg"
   p-id="20314" 
  width="32"
   height="32"
   fill="#FFFFFF" 
   >
   
   <path d="M161.6896 431.13472v-53.8624h215.58272v53.8624H161.6896z" 
      fill="#FFFFFF"  p-id="20315">
      </path>
      
      
      <path d="M161.6896 646.71744V377.27232h53.90336v269.44512H161.6896z"
         fill="#FFFFFF"  p-id="20316">
         </path>
       
       
       <path d="M161.6896 646.71744v-53.8624h215.58272v53.8624H161.6896zM161.6896 538.95168v-53.90336h188.61056v53.90336H161.6896zM588.2368 653.29152l-190.5664-190.55616 38.12352-38.13376 190.52544 190.5664-38.08256 38.12352z" 
       
       
       fill="#FFFFFF" p-id="20317"></path><path d="M435.79392 653.29152l-38.12352-38.12352 190.5664-190.5664 38.08256 38.13376-190.52544 190.55616zM646.7584 727.6032V431.13472h53.8624v296.46848h-53.8624z"
       
       
        fill="#FFFFFF" p-id="20318"></path><path d="M646.7584 485.04832v-53.9136h215.58272v53.9136H646.7584zM646.7584 619.78624v-53.90336h215.58272v53.90336H646.7584z"
        
        
         fill="#FFFFFF" p-id="20319"></path>
       
       
       <path d="M808.42752 619.78624V431.13472h53.9136v188.65152h-53.9136z"
       
        fill="#FFFFFF" p-id="20320"></path><path d="M239.7184 107.776C109.3632 109.44512 2.95936 230.38976 0.70656 366.36672H0v549.85728h781.57824l0.04096-0.08192c129.56672-2.75456 239.96416-114.56512 242.176-249.83552h0.2048V107.776H239.7184z m730.30656 537.81504h-0.18432c-1.97632 117.30944-100.75136 214.28224-216.66816 216.66816l-0.04096 0.07168H53.89312V385.47456h0.63488c2.01728-117.92384 97.20832-222.81216 213.83168-224.256h701.66528v484.37248z"  
         fill="#FFFFFF" 
        p-id="20321"

></path></svg>