<svg
t="1712203099245"
class="icon"
viewBox="0 0 1024 1024"
version="1.1"
xmlns="http://www.w3.org/2000/svg"
 p-id="10878"
  width="32"
   height="32"
   fill="#FFFFFF"
    >
     <path
       d="M512 960a145.472 145.472 0 0 1-70.272-16.768l-275.712-156.416A149.184 149.184 0 0 1 96 668.864V355.328A149.184 149.184 0 0 1 166.016 237.44l275.968-157.12a159.36 159.36 0 0 1 140.288 0l275.712 156.416A149.184 149.184 0 0 1 928 354.624v313.536a149.184 149.184 0 0 1-70.016 117.952l-275.712 157.12A144.704 144.704 0 0 1 512 960z m0-849.28a96.448 96.448 0 0 0-45.696 10.368l-275.712 156.16c-26.752 17.92-43.648 46.656-45.952 78.08v312.832c2.304 31.424 19.2 60.16 45.952 78.08l275.712 156.16c28.928 13.248 62.464 13.248 91.392 0l275.712-156.16c26.752-17.92 43.648-46.656 45.952-78.08V355.328c-2.304-31.424-19.2-60.16-45.952-78.08l-275.712-156.16A95.68 95.68 0 0 0 512 110.72z"
       p-id="10879"
          ></path>
                      <path
                        d="M512 599.36a23.936 23.936 0 0 1-24.32-23.616V341.76c0-12.992 10.88-23.552 24.32-23.552s24.32 10.56 24.32 23.552v234.048c0 13.056-10.88 23.616-24.32 23.616z"
                        p-id="10880"
                      ></path>
                      <path
                        d="M303.168 717.312a24.192 24.192 0 0 1-23.68-17.536 23.296 23.296 0 0 1 11.52-26.624L499.84 555.2a24.832 24.832 0 0 1 33.28 8.768 23.296 23.296 0 0 1-8.96 32.32L315.328 714.24a24.96 24.96 0 0 1-12.16 3.072z"
                        p-id="10881"
                      ></path>
                      <path
                        d="M720.832 717.312a24.96 24.96 0 0 1-12.16-3.072L499.84 596.288a23.296 23.296 0 0 1-8.96-32.32 24.832 24.832 0 0 1 33.28-8.768l208.832 117.952c9.6 5.312 14.4 16.256 11.52 26.624a24.192 24.192 0 0 1-23.68 17.536z"
                        p-id="10882"
                      ></path>
                    </svg>