<svg t="1712252875077"

 class="icon" viewBox="0 0 1024 1024" version="1.1"
 
  xmlns="http://www.w3.org/2000/svg"
  
  
   p-id="6380"
   
    width="32"
   height="32"
   fill="#FFFFFF" 

   ><path d="M782.60117162 691.83476588V188.42187475H277.44804687c-9.96679687 0-18.44121069 3.53320338-25.52343775 10.53632812-7.02949244 7.05585937-10.57324244 15.51445287-10.57324167 25.44433619v473.61269532a109.85097631 109.85097631 0 0 1 36.07558541-6.15410157h505.15312552l0.02109324-0.021094z m0 143.81718725v-71.91386694H277.44804687c-9.96679687 0-18.44121069 3.49101537-25.52343775 10.55742137-7.02949244 6.99785182-10.57324244 15.48281225-10.57324167 25.40214894 0 9.95625025 3.54375001 18.41484375 10.57324167 25.40214819 7.08222631 7.03476537 15.55664087 10.54687475 25.52343775 10.54687474h505.15312475zM277.47441381 116.4921875H854.77343725v791.015625H277.47441381c-29.87929662 0-55.38164037-10.44140625-76.52812449-31.5351565S169.22656275 829.49785156 169.22656275 799.6765625V224.36562476c0-29.79492214 10.57324244-55.18652369 31.71972657-76.26445288C222.09277344 127.02851562 247.59511719 116.4921875 277.47441381 116.4921875z" p-id="6381"></path></svg>