<svg t="1712215736282" class="icon" viewBox="0 0 1024 1024"

 version="1.1" xmlns="http://www.w3.org/2000/svg" 
 
 p-id="8288" 
width="32" height="32"

fill="#FFFFFF"

>
 
 
 <path d="M372.39 940.9a36 36 0 0 1-34.7-45.5l84.84-310.11H272.35a36 36 0 0 1-34.1-47.55l146.52-432.62a36 36 0 0 1 34.09-24.45h267a36 36 0 0 1 32.82 50.78L611.62 369.37h140.6a36 36 0 0 1 28.66 57.79L401.07 926.69a36 36 0 0 1-28.68 14.21z m-49.84-427.61H469.7a36 36 0 0 1 34.72 45.5l-48.29 176.52 223.49-293.94H555.93a36 36 0 0 1-32.82-50.78l107.11-237.92H444.68z" p-id="8289"></path></svg>