<svg t="1712204329398"


 class="icon" viewBox="0 0 1024 1024" version="1.1" xmlns="http://www.w3.org/2000/svg" p-id="28487" 
 
    width="32"
   height="32"
 
 
 ><path d="M505.37931 745.931034l370.758621-370.75862-13.241379-57.379311-392.827586 392.827587zM439.172414 776.827586c4.413793 4.413793 13.241379 8.827586 17.655172 8.827586l-26.482758-26.482758c4.413793 4.413793 4.413793 8.827586 8.827586 17.655172z"


 fill="#FFFFFF" p-id="28488"></path><path d="M434.758621 754.758621v-8.827587l-185.379311-185.37931c0 4.413793 4.413793 13.241379 8.827587 17.655173l176.551724 176.551724zM937.931034 406.068966L840.827586 22.068966c-4.413793-8.827586-8.827586-17.655172-17.655172-17.655173-8.827586-4.413793-17.655172 0-26.482759 4.413793L280.275862 520.827586l35.310345 35.310345 485.517241-481.103448 61.793104 242.75862 8.827586-8.827586c8.827586-8.827586 26.482759-8.827586 35.310345 0 8.827586 8.827586 8.827586 26.482759 0 35.310345l-30.896552 30.896552 8.827586 30.896552-366.344827 361.931034 35.310344 35.310345 375.172414-370.758621c8.827586-8.827586 13.241379-17.655172 8.827586-26.482758zM500.965517 820.965517c4.413793 4.413793 8.827586 4.413793 13.24138 8.827586l-48.551725-48.551724h-8.827586l44.137931 39.724138z" 


fill="#FFFFFF" p-id="28489"></path><path d="M907.034483 344.275862c8.827586-8.827586 8.827586-26.482759 0-35.310345-8.827586-8.827586-26.482759-8.827586-35.310345 0l-8.827586 8.827586 13.241379 57.379311 30.896552-30.896552zM434.758621 754.758621l26.482758 26.482758h8.827587l-35.310345-30.896551v4.413793zM465.655172 715.034483l4.413794-4.413793-154.482759-154.482759-4.413793 4.413793zM518.62069 829.793103s-4.413793 0 0 0l39.724138 39.724138-39.724138 39.724138L408.275862 794.482759c0 8.827586 0 17.655172-4.413793 22.068965l-22.068966 22.068966 119.172414 119.172413c4.413793 4.413793 13.241379 8.827586 17.655173 8.827587 4.413793 0 13.241379-4.413793 17.655172-8.827587l70.62069-70.620689c8.827586-8.827586 8.827586-26.482759 0-35.310345l-52.965518-52.965517-22.068965 22.068965c0 4.413793-8.827586 8.827586-13.241379 8.827586zM306.758621 692.965517l-136.827587-136.827586 35.310345-35.310345 39.724138 39.724138c0-8.827586 4.413793-13.241379 8.827586-17.655172l22.068966-22.068966-52.965517-52.965517c-8.827586-8.827586-26.482759-8.827586-35.310345 0L116.965517 538.482759c-8.827586 8.827586-8.827586 26.482759 0 35.310344l145.655173 145.655173 22.068965-22.068966c4.413793-4.413793 13.241379-8.827586 22.068966-4.413793zM501.804138 750.344828l3.089655-3.089656 15.668966 15.536552-3.089656 3.133793zM298.416552 757.406897l3.089655-3.133794 46.830345 46.786207-3.089655 3.133793z"


 fill="#FFFFFF" p-id="28490"></path><path d="M465.92 714.46069l3.089655-3.133793 37.517242 37.428965-3.177931 3.133793zM249.37931 560.551724L434.758621 750.344828c0-4.413793 4.413793-4.413793 4.413793-8.827587l22.068965-22.068965-154.482758-154.482759 4.413793-4.413793-35.310345-35.310345-22.068966 22.068966c-4.413793 0-4.413793 8.827586-4.413793 13.241379zM518.62069 768l-17.655173-17.655172-26.482758 26.482758c-4.413793 4.413793-4.413793 4.413793-8.827587 4.413793l48.551725 48.551724h4.413793c4.413793 0 13.241379-4.413793 17.655172-8.827586l22.068966-22.068965-39.724138-30.896552z"


 fill="#FFFFFF" p-id="28491"></path><path d="M439.172414 737.103448c-4.413793 4.413793-4.413793 4.413793-4.413793 8.827586l30.896551 30.896552c4.413793 0 4.413793-4.413793 8.827587-4.413793l26.482758-22.068965-35.310345-35.310345-26.482758 22.068965zM196.413793 953.37931l-48.551724-48.551724L297.931034 754.758621l-35.310344-35.310345-167.724138 167.724138c-8.827586 8.827586-8.827586 26.482759 0 35.310345l83.862069 83.862069c4.413793 4.413793 13.241379 8.827586 17.655172 8.827586s13.241379-4.413793 17.655173-8.827586L381.793103 838.62069l-35.310344-35.310345-150.068966 150.068965zM320 697.37931c-4.413793-4.413793-8.827586-4.413793-13.241379-4.413793L408.275862 794.482759c0-4.413793-4.413793-8.827586-4.413793-13.24138l-83.862069-83.862069z"


fill="#FFFFFF" p-id="28492"></path><path d="M408.275862 794.482759l-101.517241-101.517242c-8.827586 0-17.655172 0-22.068966 4.413793l-22.068965 22.068966 35.310344 35.310345 48.551725 48.551724 35.310344 35.310345 22.068966-22.068966c4.413793-4.413793 8.827586-13.241379 4.413793-22.068965z" 


fill="#FFFFFF" p-id="28493"></path></svg>