<svg t="1712215875073" class="icon" 

viewBox="0 0 1024 1024" version="1.1" 


xmlns="http://www.w3.org/2000/svg" p-id="11934" 

width="32" height="32"

fill="#FFFFFF"

>


<path d="M104.5 862.27V603.49l102.97-93.16L104.5 409.81V159.57l300.85 278.14-67.01 74.74 67.7 62.49L104.5 862.27z m23-248.57v194.88l244.92-233.36-66.34-61.23 67.02-74.76-245.6-227.07v187.96l113.55 110.85L127.5 613.7zM409.3 939.72H157.28l290.99-324.89 71.27 75.16 73.56-74.85 289.02 311.69H595.54l-80.56-87.88L409.3 939.72z m-200.54-23h191.33l115.99-110.6 89.57 97.71h223.78L592.62 648.45l-73.37 74.66-70.5-74.34-239.99 267.95zM921.41 879.21L619.42 568.67l76.4-58.58-76-65.87 301.59-301.59v256.22l-93.93 111.23 93.93 96.4v272.73zM653.94 571.19L898.4 822.57V615.85L796.44 511.2l101.97-120.75V198.16L653.55 443.03l78.65 68.17-78.26 59.99zM456.26 408.5L140.14 86.73h279.79l103.53 108.46L631.92 86.73H906.4l-315.66 321.3-70.87-64.43-63.61 64.9z m62.68-96.83l70.9 64.45 261.72-266.4H641.45L523.08 228.1 410.09 109.73H194.98l261.26 265.93 62.7-63.99zM518.61 613.36c-55.38 0-100.43-45.05-100.43-100.43S463.23 412.5 518.61 412.5s100.43 45.05 100.43 100.43-45.05 100.43-100.43 100.43z m0-177.85c-42.69 0-77.43 34.73-77.43 77.43s34.73 77.43 77.43 77.43c42.69 0 77.43-34.73 77.43-77.43s-34.73-77.43-77.43-77.43z" p-id="11935">

</path></svg>