<svg t="1712204682176" class="icon" 

viewBox="0 0 1024 1024" version="1.1" xmlns="http://www.w3.org/2000/svg"

 p-id="31646"     width="32"
   height="32"><path d="M852.92032 157.36832c-4.58752-4.58752-13.76256-4.58752-18.3552-4.58752-27.53024 9.17504-87.18848 0-105.54368-13.76256-87.18848-45.89568-156.02176-59.65824-201.91232-59.65824h-32.11776c-55.07072 0-119.31136 18.3552-192.73728 59.65824-27.53536 13.76256-78.01344 22.94272-110.1312 13.76256-4.58752 0-13.76768 0-18.36032 4.58752-4.58752 4.58752-9.17504 9.17504-9.17504 18.3552v220.26752c0 215.68 142.25408 412.99968 334.98624 509.36832 4.58752 4.5824 13.76768 4.5824 18.36032 0 197.31968-91.78112 339.57376-293.68832 339.57376-509.36832V175.72352c4.59264-9.17504 0-13.76256-4.58752-18.3552z m-105.54368 417.59232c-9.17504 18.35008-18.3552 41.29792-32.11776 59.65312-55.0656 82.59584-123.89888 160.60416-201.91232 192.73728V492.35968H251.78112s-13.76768-50.47296-13.76768-119.30624V230.79424s27.53536-9.17504 64.24576-18.3552 78.00832-36.7104 114.72384-45.89056C467.456 152.7808 508.75392 152.7808 508.75392 152.7808v339.57376c0-13.76256 0-13.76256 0 0h256.9728c9.18528 0.00512-13.76256 78.01344-18.35008 82.60608z" fill="#FFFFFF" p-id="31647"></path></svg>