<svg t="1712255460462" 

class="icon" viewBox="0 0 1024 1024" version="1.1" xmlns="http://www.w3.org/2000/svg"


 p-id="14945"

width="32" height="32"

fill="#FFFFFF"

 
 
 ><path d="M246.510933 572.962133l189.5424 189.6448-75.776 75.844267 75.8784 75.8784-75.844266 75.844267-132.744534-132.744534-151.722666 151.7568L0 933.341867l151.722667-151.790934-132.744534-132.7104 75.844267-75.844266L170.666667 648.772267l75.776-75.810134h0.068266zM29.2864 14.813867L219.477333 15.018667l633.787734 633.856 75.912533-75.844267 75.844267 75.844267-132.7104 132.778666L1024 933.307733l-75.844267 75.844267-151.722666-151.7568-132.778667 132.778667-75.810133-75.8784 75.844266-75.8784L29.457067 204.219733 29.2864 14.813867z m775.406933 0l190.020267 0.170666 0.1024 188.962134-217.361067 217.326933-189.678933-189.610667L804.693333 14.813867z" fill="#FFFFFF" p-id="14946"></path></svg>