<svg   
 t="1712203657027" 
 class="icon" 
 viewBox="0 0 1024 1024" 
 version="1.1" 
 xmlns="http://www.w3.org/2000/svg"
  p-id="16483" 
  width="32"
   height="32"
   fill="#FFFFFF" 
   >
  
  
  <path d="M1013.211429 466.651429L802.377143 101.668571c-15.177143-26.148571-43.154286-42.422857-73.142857-42.422857H295.314286c-30.171429 0-58.148571 16.274286-73.142857 42.422857L11.702857 466.651429c-20.297143 35.108571-12.8 79.908571 17.92 106.422857l428.982857 370.651428c15.542857 13.165714 35.108571 20.48 55.222857 20.48s39.862857-7.314286 55.222858-20.662857l426.057142-370.468571c30.72-26.697143 38.034286-71.314286 18.102858-106.422857z m-63.085715 54.125714L523.885714 891.062857c-5.668571 5.12-14.628571 5.12-20.297143 0L74.605714 520.777143c-5.668571-4.937143-7.131429-13.348571-3.474285-19.565714L281.782857 136.045714c2.925714-4.937143 7.862857-7.862857 13.531429-7.862857h433.737143c5.485714 0 10.788571 2.925714 13.531428 7.862857L953.234286 501.028571c3.84 6.582857 2.377143 14.994286-3.108572 19.748572z" p-id="16484"></path><path d="M778.24 428.434286c-8.777143-0.914286-17.92 2.194286-25.234286 8.411428L523.702857 636.525714c-5.851429 5.12-14.628571 5.12-20.662857 0.182857L271.36 436.48c-6.948571-6.034286-15.36-8.777143-25.051429-8.411429-9.142857 0.548571-17.554286 4.754286-23.588571 11.885715-6.034286 7.131429-8.96 15.908571-8.411429 25.051428 0.548571 9.142857 4.754286 17.554286 11.885715 23.588572l231.68 200.045714c15.542857 13.348571 35.108571 20.662857 55.222857 20.662857s39.862857-7.314286 55.405714-20.662857l229.851429-199.862857c14.262857-12.434286 15.908571-34.194286 3.474285-48.457143-5.851429-6.948571-14.262857-11.154286-23.588571-11.885714z"  p-id="16485"  ></path></svg>