<svg t="1712204115722"
 class="icon" 
viewBox="0 0 1024 1024"


 version="1.1" xmlns="http://www.w3.org/2000/svg"
 
  p-id="27468"
  
  
    width="32"
   height="32"
   fill="#FFFFFF" 
  >
  
  
  <path d="M447.01893541 725.24771898c2.74567878 0 32.94814542-86.94649486 32.94814543-86.94649487h134.53826047l34.77859792 86.94649487H447.01893541zM730.73907654 725.24771898c2.74567878 0 32.94814542-86.94649486 32.94814543-86.94649487h134.53826047l34.77859797 86.94649487h-202.26500387z"
  
   fill="#FFFFFF" p-id="27469"></path><path d="M370.13992943 742.63701794H87.33501456c-6.40658382 0-11.8979414-2.74567878-14.64362018-8.23703635-3.66090506-5.49135757-3.66090506-10.98271516-0.91522628-16.4740727l63.15061208-141.86007058c2.74567878-6.40658382 9.15226261-10.98271516 16.47407269-10.98271512h157.41891703c7.3218101 0 13.72839391 4.5761313 16.47407271 10.98271512l63.15061207 141.86007058c2.74567878 5.49135757 1.83045253 11.8979414-0.91522626 16.4740727-5.49135757 5.49135757-10.98271516 8.23703635-17.38929899 8.23703635z m-255.34812703-35.69382419h228.80656544l-47.59176561-106.16624638H161.46834175l-46.67653935 106.16624638z"
   
   

    fill="#FFFFFF" p-id="27470"></path><path d="M653.86007057 742.63701794h-283.72014114c-6.40658382 0-11.8979414-2.74567878-14.64362018-8.23703635-3.66090506-5.49135757-3.66090506-10.98271516-0.91522627-16.4740727l63.15061207-141.86007058c2.74567878-6.40658382 9.15226261-10.98271516 16.47407269-10.98271512h157.41891703c7.3218101 0 13.72839391 4.5761313 16.47407271 10.98271512l63.15061208 141.86007058c2.74567878 5.49135757 1.83045253 11.8979414-0.91522626 16.4740727-5.49135757 5.49135757-10.98271516 8.23703635-16.47407273 8.23703635z m-256.26335329-35.69382419h228.80656544l-46.67653934-106.16624638H445.1884829l-47.59176562 106.16624638z"
    
     fill="#FFFFFF" p-id="27471"></path><path d="M512.91522626 600.77694737H230.11031138c-6.40658382 0-11.8979414-2.74567878-14.64362017-8.23703634-3.66090506-5.49135757-3.66090506-10.98271516-0.91522626-16.47407272l63.15061204-141.86007057c2.74567878-6.40658382 9.15226261-10.98271516 16.47407272-10.98271511h157.418917c7.3218101 0 13.72839391 4.5761313 16.47407274 10.98271511l63.15061204 141.86007057c2.74567878 5.49135757 1.83045253 11.8979414-0.91522625 16.47407272-5.49135757 5.49135757-10.98271516 8.23703635-17.38929898 8.23703634z m-255.34812703-35.69382418h228.80656544L438.78189905 458.91687681H304.24363858l-46.67653935 106.16624638z"
     
     
      fill="#FFFFFF" p-id="27472"></path><path d="M796.63536739 600.77694737h-282.80491486c-6.40658382 0-11.8979414-2.74567878-14.64362019-8.23703634-3.66090506-5.49135757-3.66090506-10.98271516-0.91522625-16.47407272l63.15061202-141.86007057c2.74567878-6.40658382 9.15226261-10.98271516 16.47407275-10.98271511h157.41891699c7.3218101 0 13.72839391 4.5761313 16.47407272 10.98271511l63.15061205 141.86007057c2.74567878 5.49135757 1.83045253 11.8979414-0.91522626 16.47407272-5.49135757 5.49135757-11.8979414 8.23703635-17.38929897 8.23703634z m-256.26335328-35.69382418h228.80656545l-47.59176563-106.16624638h-134.53826047l-46.67653935 106.16624638z"
      
      
       fill="#FFFFFF" p-id="27473"></path><path d="M652.02961805 458.91687681H369.22470317c-6.40658382 0-11.8979414-2.74567878-14.64362019-8.23703635-3.66090506-5.49135757-3.66090506-10.98271516-0.91522628-16.47407272L416.81646878 292.34569718c2.74567878-6.40658382 9.15226261-10.98271516 16.47407272-10.98271512h157.418917c7.3218101 0 13.72839391 4.5761313 16.47407272 10.98271512l63.15061208 141.86007056c2.74567878 5.49135757 1.83045253 11.8979414-0.91522628 16.47407272-5.49135757 5.49135757-10.98271516 8.23703635-17.38929897 8.23703635z m-255.34812703-35.69382418h228.80656543l-47.59176559-106.16624638H443.35803036l-46.67653934 106.16624638zM933.00408041 742.63701794h-283.72014118c-6.40658382 0-11.8979414-2.74567878-14.64362016-8.23703635-3.66090506-5.49135757-3.66090506-10.98271516-0.91522628-16.4740727l63.15061208-141.86007058c2.74567878-6.40658382 9.15226261-10.98271516 16.4740727-10.98271512h157.41891702c7.3218101 0 13.72839391 4.5761313 16.47407272 10.98271512l63.15061207 141.86007058c2.74567878 5.49135757 1.83045253 11.8979414-0.91522629 16.4740727-5.49135757 5.49135757-10.98271516 8.23703635-16.47407268 8.23703635z m-256.2633533-35.69382419h228.80656541l-47.59176558-106.16624638h-134.5382605l-46.67653933 106.16624638z"
       
       
        fill="#FFFFFF" p-id="27474"></path><path d="M969.61313087 742.63701794H54.38686913c-10.06748889 0-17.38929897-8.23703635-17.38929895-17.38929896 0-10.06748889 8.23703635-17.38929897 17.38929895-17.38929898h915.22626174c10.06748889 0 17.38929897 8.23703635 17.38929895 17.38929898 0.91522626 9.15226261-7.3218101 17.38929897-17.38929895 17.38929896z"

 fill="#FFFFFF" p-id="27475">
 
 </path></svg>