<svg t="1712214107004" 

class="icon" viewBox="0 0 1024 1024" 

version="1.1" xmlns="http://www.w3.org/2000/svg" 

p-id="5550" width="32" height="32">


<path d="M655.36 558.08l143.36 143.36 92.16 71.68 112.64 230.4-235.52-117.76-71.68-92.16-143.36-143.36 35.84-35.84 76.8 76.8 40.96 15.36-15.36-40.96-76.8-76.8 40.96-30.72zM788.48 204.8l-460.8 465.92-15.36 40.96 40.96-15.36 460.8-460.8h5.12l-25.6 92.16-471.04 471.04L256 885.76 25.6 998.4 138.24 768l92.16-71.68 471.04-471.04 87.04-20.48zM204.8 230.4l194.56 194.56-35.84 35.84-133.12-133.12L204.8 230.4z m30.72-25.6l92.16 25.6L460.8 363.52l-35.84 35.84L235.52 204.8zM46.08 0l102.4 102.4h194.56v66.56H168.96v168.96H102.4V148.48l-102.4-102.4L46.08 0z m931.84 0l46.08 46.08-102.4 102.4v189.44h-66.56V168.96h-174.08V102.4h194.56l102.4-102.4z" fill="#FFFFFF" p-id="5551"></path></svg>